<svg width="50" height="50" viewBox="0 0 50 50" fill="none" xmlns="http://www.w3.org/2000/svg">
<path d="M35.9375 26.1434V19.5312H28.125V26.1434C28.125 26.4876 28.0113 26.8222 27.8015 27.0952C27.5918 27.3682 27.2978 27.5643 26.9651 27.653L19.8859 29.541C18.888 29.8071 18.0059 30.3954 17.3767 31.2144C16.7474 32.0334 16.4063 33.0372 16.4062 34.07V47.6562H47.6562V34.07C47.6562 33.0372 47.3151 32.0334 46.6858 31.2144C46.0566 30.3954 45.1745 29.8071 44.1766 29.541L37.0974 27.6532C36.7647 27.5645 36.4706 27.3684 36.2609 27.0954C36.0512 26.8223 35.9375 26.4877 35.9375 26.1434V26.1434Z" fill="#FEC9A3"/>
<path d="M33.7278 28.125C34.7072 28.1231 35.6671 27.8514 36.5021 27.3396C36.326 27.1939 36.1841 27.0111 36.0865 26.8044C35.989 26.5977 35.9381 26.372 35.9375 26.1434V19.5312H28.125V26.1434C28.1243 26.372 28.0734 26.5977 27.9759 26.8044C27.8783 27.0111 27.7364 27.1939 27.5603 27.3396C28.3953 27.8514 29.3553 28.1231 30.3346 28.125H33.7278Z" fill="#FEB784"/>
<path d="M44.1766 29.5411L37.373 27.7266C37.1079 28.9461 36.4334 30.0383 35.4616 30.8215C34.4898 31.6046 33.2793 32.0317 32.0312 32.0317C30.7832 32.0317 29.5727 31.6046 28.6009 30.8215C27.6291 30.0383 26.9546 28.9461 26.6895 27.7266L19.8859 29.5411C18.888 29.8072 18.0059 30.3955 17.3767 31.2145C16.7474 32.0334 16.4063 33.0373 16.4062 34.0701V47.6563H47.6562V34.0701C47.6562 33.0373 47.3151 32.0334 46.6858 31.2145C46.0566 30.3955 45.1745 29.8072 44.1766 29.5411V29.5411Z" fill="#C7AE71"/>
<path d="M16.4062 37.5H22.6562V47.6562H16.4062V37.5Z" fill="#FEC9A3"/>
<path d="M41.4062 37.5H47.6562V47.6562H41.4062V37.5Z" fill="#FEB784"/>
<path d="M5.46875 44.5312H32.8125V47.6562H5.46875V44.5312Z" fill="#C7C7C5"/>
<path d="M23.6006 47.6562H6.90332C6.53318 47.6561 6.1722 47.5412 5.87013 47.3273C5.56807 47.1134 5.3398 46.811 5.2168 46.4619C5.19238 46.3946 5.17248 46.3258 5.15723 46.2559L2.37695 33.7441C2.35514 33.644 2.34401 33.5419 2.34375 33.4395C2.3436 33.2545 2.37992 33.0713 2.45063 32.9004C2.52134 32.7295 2.62507 32.5742 2.75586 32.4434C2.88665 32.3126 3.04195 32.2088 3.21287 32.1381C3.3838 32.0674 3.56698 32.0311 3.75195 32.0313H21.1875C21.6016 32.0312 22.0029 32.1746 22.3232 32.437C22.6435 32.6994 22.863 33.0647 22.9443 33.4707L23.1875 34.6895L25.3535 45.5176C25.4054 45.777 25.3991 46.0446 25.3351 46.3013C25.271 46.5579 25.1509 46.7972 24.9832 47.0018C24.8155 47.2063 24.6045 47.3712 24.3654 47.4843C24.1263 47.5975 23.8651 47.6562 23.6006 47.6562V47.6562Z" fill="#E0E0DE"/>
<path d="M14.4763 40.952C15.0469 40.355 14.9809 39.3658 14.3289 38.7426C13.6769 38.1195 12.6857 38.0983 12.1152 38.6953C11.5446 39.2923 11.6106 40.2814 12.2626 40.9046C12.9147 41.5278 13.9058 41.549 14.4763 40.952Z" fill="#EBEBE9"/>
<path d="M42.9688 47.6562H36.7188L35.9375 37.5H43.75L42.9688 47.6562Z" fill="#D6D6D4"/>
<path d="M36.1779 40.625L36.4784 44.5312H43.2091L43.5097 40.625H36.1779Z" fill="#95573A"/>
<path d="M41.4062 26.5625V27.3438C40.163 27.3438 38.9708 27.8376 38.0917 28.7167C37.2126 29.5958 36.7188 30.788 36.7188 32.0312V34.375H42.9688V32.8125C42.9688 32.3981 43.1334 32.0007 43.4264 31.7076C43.7194 31.4146 44.1168 31.25 44.5312 31.25C44.9457 31.25 45.3431 31.0854 45.6361 30.7924C45.9291 30.4993 46.0938 30.1019 46.0938 29.6875V28.9062C46.0937 28.2846 46.3407 27.6885 46.7802 27.249C47.2198 26.8094 47.8159 26.5625 48.4375 26.5625V19.5312C46.5727 19.5313 44.7843 20.272 43.4657 21.5907C42.147 22.9093 41.4062 24.6977 41.4062 26.5625V26.5625Z" fill="#EBEBE9"/>
<path d="M41.4062 40.625H47.6562V47.6562H41.4062C40.9918 47.6562 40.5944 47.4916 40.3014 47.1986C40.0084 46.9056 39.8438 46.5082 39.8438 46.0938V42.1875C39.8438 41.7731 40.0084 41.3757 40.3014 41.0826C40.5944 40.7896 40.9918 40.625 41.4062 40.625Z" fill="#FEC9A3"/>
<path d="M39.8438 11.7188H39.0625V16.4062H39.8438C40.4654 16.4062 41.0615 16.1593 41.501 15.7198C41.9406 15.2802 42.1875 14.6841 42.1875 14.0625C42.1875 13.4409 41.9406 12.8448 41.501 12.4052C41.0615 11.9657 40.4654 11.7188 39.8438 11.7188Z" fill="#FEB784"/>
<path d="M24.2578 11.7188H24.2188C23.5971 11.7188 23.001 11.9657 22.5615 12.4052C22.1219 12.8448 21.875 13.4409 21.875 14.0625C21.875 14.6841 22.1219 15.2802 22.5615 15.7198C23.001 16.1593 23.5971 16.4062 24.2188 16.4062H25V11.7188H24.2578Z" fill="#FEB784"/>
<path d="M32.0312 25C30.1664 25 28.378 24.2592 27.0594 22.9406C25.7408 21.622 25 19.8336 25 17.9688V10.9375C25 9.0727 25.7408 7.28427 27.0594 5.96566C28.378 4.64704 30.1664 3.90625 32.0312 3.90625C33.8961 3.90625 35.6845 4.64704 37.0031 5.96566C38.3217 7.28427 39.0625 9.0727 39.0625 10.9375V17.9688C39.0625 19.8336 38.3217 21.622 37.0031 22.9406C35.6845 24.2592 33.8961 25 32.0312 25V25Z" fill="#FEC9A3"/>
<path d="M32.0312 3.90625C31.5053 3.90775 30.9812 3.96822 30.4688 4.08652C32.0216 4.44013 33.4083 5.31053 34.4018 6.55517C35.3953 7.79982 35.9368 9.34494 35.9375 10.9375V17.9687C35.9368 19.5613 35.3953 21.1064 34.4018 22.3511C33.4083 23.5957 32.0216 24.4661 30.4688 24.8197C31.4984 25.0578 32.5686 25.0601 33.5993 24.8265C34.6299 24.5929 35.5945 24.1294 36.4209 23.4706C37.2473 22.8118 37.9141 21.9748 38.3715 21.0221C38.8289 20.0693 39.0651 19.0256 39.0625 17.9687V10.9375C39.0625 9.07269 38.3217 7.28427 37.0031 5.96565C35.6845 4.64704 33.896 3.90625 32.0312 3.90625V3.90625Z" fill="#FEC093"/>
<path d="M28.5156 14.0625C29.1628 14.0625 29.6875 13.5378 29.6875 12.8906C29.6875 12.2434 29.1628 11.7188 28.5156 11.7188C27.8684 11.7188 27.3438 12.2434 27.3438 12.8906C27.3438 13.5378 27.8684 14.0625 28.5156 14.0625Z" fill="#7A432A"/>
<path d="M35.5469 14.0625C36.1941 14.0625 36.7188 13.5378 36.7188 12.8906C36.7188 12.2434 36.1941 11.7188 35.5469 11.7188C34.8997 11.7188 34.375 12.2434 34.375 12.8906C34.375 13.5378 34.8997 14.0625 35.5469 14.0625Z" fill="#7A432A"/>
<path d="M30.4688 17.1875H33.5938V15.625H31.5528L32.7727 11.9659L31.2903 11.4716L29.7278 16.1591C29.6886 16.2765 29.6779 16.4015 29.6965 16.5239C29.7152 16.6463 29.7627 16.7625 29.835 16.8629C29.9074 16.9634 30.0026 17.0452 30.1128 17.1016C30.223 17.158 30.345 17.1875 30.4688 17.1875V17.1875Z" fill="#F7A468"/>
<path d="M25 11.7188L27.6611 15.7104C27.8038 15.9245 27.9971 16.1 28.2239 16.2214C28.4507 16.3427 28.704 16.4063 28.9612 16.4062H35.1013C35.3585 16.4063 35.6118 16.3427 35.8386 16.2214C36.0654 16.1 36.2587 15.9245 36.4014 15.7104L39.0625 11.7188V21.2278C39.0625 21.9284 38.9245 22.6221 38.6564 23.2693C38.3883 23.9165 37.9954 24.5046 37.5 25C37.0046 25.4954 36.4165 25.8883 35.7693 26.1564C35.1221 26.4245 34.4284 26.5625 33.7278 26.5625H30.3347C29.6341 26.5625 28.9404 26.4245 28.2932 26.1564C27.646 25.8883 27.0579 25.4954 26.5625 25C26.0671 24.5046 25.6742 23.9165 25.4061 23.2693C25.138 22.6221 25 21.9284 25 21.2278V11.7188Z" fill="#7A432A"/>
<path d="M36.4013 15.7104C36.2791 15.8882 36.1211 16.0385 35.9375 16.1518V21.2278C35.9375 22.6427 35.3754 23.9996 34.375 25C33.3745 26.0005 32.0176 26.5625 30.6028 26.5625H33.7278C35.1426 26.5625 36.4995 26.0005 37.5 25C38.5004 23.9996 39.0625 22.6427 39.0625 21.2278V11.7188L36.4013 15.7104Z" fill="#743B20"/>
<path d="M34.1484 18.0023C33.238 18.2767 32.2921 18.4154 31.3412 18.4139H29.6875V19.9765H31.3412C32.4456 19.978 33.5442 19.8168 34.6016 19.4979L34.1484 18.0023Z" fill="#FEC9A3"/>
<path d="M27.3437 9.375H38.8822C38.665 8.42523 38.253 7.53093 37.6721 6.74875C37.0912 5.96657 36.3542 5.31358 35.5078 4.83115C35.1374 4.73719 34.757 4.68895 34.375 4.6875H28.8201C27.2822 5.48014 26.0897 6.81095 25.47 8.42627C25.6864 8.71985 25.9687 8.9586 26.2941 9.12336C26.6195 9.28812 26.979 9.37431 27.3437 9.375V9.375Z" fill="#FEC093"/>
<path d="M25 11.7188V7.8125C25 5.22363 26.7489 3.90625 28.9062 3.90625L28.7688 4.40117C28.0029 7.1582 26.7126 9.66367 25 11.7188Z" fill="#95573A"/>
<path d="M39.0625 11.7188V7.03125C39.0625 4.44238 37.3136 3.90625 35.1562 3.90625L35.2937 4.40107C36.0596 7.1582 37.3499 9.66367 39.0625 11.7188Z" fill="#95573A"/>
<path d="M39.0625 7.8125H27.3438C26.7221 7.8125 26.126 7.56557 25.6865 7.12603C25.2469 6.68649 25 6.09035 25 5.46875V3.125H35.1562C36.1923 3.125 37.1858 3.53655 37.9184 4.26911C38.6509 5.00168 39.0625 5.99525 39.0625 7.03125V7.8125Z" fill="#7A432A"/>
<path d="M35.1562 3.125H32.0312C33.0673 3.125 34.0608 3.53655 34.7934 4.26911C35.5259 5.00168 35.9375 5.99525 35.9375 7.03125V7.8125H39.0625V7.03125C39.0625 5.99525 38.6509 5.00168 37.9184 4.26911C37.1858 3.53655 36.1923 3.125 35.1562 3.125V3.125Z" fill="#743B20"/>
<path d="M43.6298 39.0625L43.75 37.5H35.9375L36.0577 39.0625H43.6298Z" fill="#C7C7C5"/>
<path d="M35.1562 34.375H44.5312V37.5H35.1562V34.375Z" fill="#7A432A"/>
<path d="M41.4062 34.375H44.5312V37.5H41.4062V34.375Z" fill="#743B20"/>
<path d="M38.8325 28.1152C38.1829 28.5413 37.6495 29.1223 37.2805 29.806C36.9115 30.4896 36.7184 31.2544 36.7188 32.0313V34.375H42.9688V32.8125C42.9688 32.3981 43.1334 32.0007 43.4264 31.7076C43.7194 31.4146 44.1168 31.25 44.5312 31.25C44.8119 31.2493 45.0872 31.1727 45.3279 31.0283C45.5686 30.8839 45.7657 30.677 45.8984 30.4297C45.3933 30.0158 44.8067 29.7129 44.1769 29.5405L38.8325 28.1152Z" fill="#D4BD81"/>
<path d="M23.6006 47.6562H6.90332C6.53318 47.6561 6.1722 47.5412 5.87013 47.3273C5.56807 47.1134 5.3398 46.811 5.2168 46.4619C11.5918 44.4551 18.5986 40.916 23.1875 34.6895L25.3535 45.5176C25.4054 45.777 25.3992 46.0446 25.3351 46.3013C25.2711 46.5579 25.1509 46.7972 24.9832 47.0018C24.8155 47.2063 24.6045 47.3712 24.3654 47.4843C24.1263 47.5975 23.8651 47.6562 23.6006 47.6562V47.6562Z" fill="#D6D6D4"/>
</svg>
