<svg width="16" height="16" viewBox="0 0 16 16" fill="none" xmlns="http://www.w3.org/2000/svg">
<g clip-path="url(#clip0)">
<path d="M7.999 0.166504C3.582 0.166504 0 3.83895 0 8.36926C0 11.9927 2.292 15.0667 5.472 16.1523C5.872 16.2279 6.018 15.9746 6.018 15.7571C6.018 15.562 6.011 15.0463 6.007 14.362C3.782 14.8573 3.312 13.2621 3.312 13.2621C2.949 12.3144 2.424 12.0621 2.424 12.0621C1.697 11.5535 2.478 11.5638 2.478 11.5638C3.281 11.622 3.703 12.4094 3.703 12.4094C4.417 13.6624 5.576 13.3009 6.032 13.0905C6.104 12.5605 6.311 12.199 6.54 11.9937C4.764 11.7864 2.896 11.0827 2.896 7.94033C2.896 7.04469 3.208 6.31244 3.72 5.7385C3.637 5.53118 3.363 4.69681 3.798 3.56832C3.798 3.56832 4.47 3.34773 5.998 4.40882C6.636 4.22703 7.32 4.13614 8.001 4.13308C8.68 4.13716 9.365 4.22703 10.004 4.40984C11.531 3.34875 12.202 3.56934 12.202 3.56934C12.638 4.69885 12.364 5.5322 12.282 5.73952C12.795 6.31346 13.104 7.04571 13.104 7.94135C13.104 11.0919 11.234 11.7854 9.452 11.9886C9.739 12.2419 9.995 12.7423 9.995 13.5072C9.995 14.604 9.985 15.4885 9.985 15.7571C9.985 15.9766 10.129 16.2319 10.535 16.1513C13.71 15.0646 16 11.9917 16 8.36926C16 3.83895 12.418 0.166504 7.999 0.166504Z" fill="black"/>
</g>
<defs>
<clipPath id="clip0">
<rect width="16" height="16" fill="white"/>
</clipPath>
</defs>
</svg>
