<svg width="36" height="36" viewBox="0 0 36 36" fill="none" xmlns="http://www.w3.org/2000/svg">
<path d="M1.125 1.125H34.875V34.875H1.125V1.125Z" fill="#C7E2FB"/>
<path d="M1.125 30.2569C3.66819 31.0833 6.32592 31.5028 9 31.5C22.3594 31.5 33.1875 21.3019 33.1875 8.71875C33.1882 6.12475 32.7193 3.55204 31.8038 1.125H1.125V30.2569Z" fill="#EBF7FE"/>
<path d="M3.375 15.75H32.625V32.625H3.375V15.75Z" fill="white"/>
<path d="M3.375 15.75H32.625V19.125H3.375V15.75Z" fill="#F7D881"/>
<path d="M1.125 1.125H34.875V12.375H1.125V1.125Z" fill="#F7D881"/>
<path d="M34.875 0.5625H1.125C0.975816 0.5625 0.832742 0.621763 0.727252 0.727252C0.621763 0.832742 0.5625 0.975816 0.5625 1.125V34.875C0.5625 35.0242 0.621763 35.1673 0.727252 35.2727C0.832742 35.3782 0.975816 35.4375 1.125 35.4375H34.875C35.0242 35.4375 35.1673 35.3782 35.2727 35.2727C35.3782 35.1673 35.4375 35.0242 35.4375 34.875V1.125C35.4375 0.975816 35.3782 0.832742 35.2727 0.727252C35.1673 0.621763 35.0242 0.5625 34.875 0.5625ZM34.3125 1.6875V11.8125H1.6875V1.6875H34.3125ZM1.6875 34.3125V12.9375H34.3125V34.3125H1.6875Z" fill="black"/>
<path d="M4.5 3.9375H5.625V9.5625H4.5V3.9375Z" fill="black"/>
<path d="M20.8125 3.9375H21.9375V9.5625H20.8125V3.9375Z" fill="black"/>
<path d="M7.87496 6.46327L9.64683 9.27576C9.69472 9.36101 9.764 9.43231 9.84785 9.48261C9.93169 9.53292 10.0272 9.5605 10.125 9.56264C10.1772 9.57003 10.2302 9.57003 10.2825 9.56264C10.4031 9.52757 10.5085 9.45313 10.5819 9.35118C10.6553 9.24924 10.6925 9.12566 10.6875 9.00014V3.93765H9.56246V7.03702L7.79058 4.22452C7.73234 4.11218 7.63793 4.02275 7.52259 3.9707C7.40725 3.91864 7.27773 3.907 7.15496 3.93765C7.03433 3.97272 6.92892 4.04716 6.85552 4.1491C6.78212 4.25105 6.74496 4.37463 6.74996 4.50015V9.56264H7.87496V6.46327Z" fill="black"/>
<path d="M13.0331 9.30937C13.0846 9.38594 13.1541 9.44868 13.2355 9.49206C13.3169 9.53544 13.4077 9.55813 13.5 9.55813C13.5923 9.55813 13.6831 9.53544 13.7645 9.49206C13.8459 9.44868 13.9154 9.38594 13.9669 9.30937L15.0919 7.62188C15.1534 7.53035 15.1866 7.42277 15.1875 7.3125V3.9375H14.0625V7.14375L13.5 7.9875L12.9375 7.14375V3.9375H11.8125V7.3125C11.8134 7.42277 11.8466 7.53035 11.9081 7.62188L13.0331 9.30937Z" fill="black"/>
<path d="M18 9.5625C18.4476 9.5625 18.8768 9.38471 19.1932 9.06824C19.5097 8.75178 19.6875 8.32255 19.6875 7.875V5.625C19.6875 5.17745 19.5097 4.74822 19.1932 4.43176C18.8768 4.11529 18.4476 3.9375 18 3.9375C17.5524 3.9375 17.1232 4.11529 16.8068 4.43176C16.4903 4.74822 16.3125 5.17745 16.3125 5.625V7.875C16.3125 8.32255 16.4903 8.75178 16.8068 9.06824C17.1232 9.38471 17.5524 9.5625 18 9.5625V9.5625ZM17.4375 5.625C17.4375 5.47582 17.4968 5.33274 17.6023 5.22725C17.7077 5.12176 17.8508 5.0625 18 5.0625C18.1492 5.0625 18.2923 5.12176 18.3977 5.22725C18.5032 5.33274 18.5625 5.47582 18.5625 5.625V7.875C18.5625 8.02418 18.5032 8.16726 18.3977 8.27275C18.2923 8.37824 18.1492 8.4375 18 8.4375C17.8508 8.4375 17.7077 8.37824 17.6023 8.27275C17.4968 8.16726 17.4375 8.02418 17.4375 7.875V5.625Z" fill="black"/>
<path d="M24.75 9.5625H25.3125C25.7601 9.5625 26.1893 9.38471 26.5057 9.06824C26.8222 8.75178 27 8.32255 27 7.875H25.875C25.875 8.02418 25.8157 8.16726 25.7102 8.27275C25.6048 8.37824 25.4617 8.4375 25.3125 8.4375H24.75C24.6008 8.4375 24.4577 8.37824 24.3523 8.27275C24.2468 8.16726 24.1875 8.02418 24.1875 7.875V5.625C24.1875 5.47582 24.2468 5.33274 24.3523 5.22725C24.4577 5.12176 24.6008 5.0625 24.75 5.0625H25.3125C25.4617 5.0625 25.6048 5.12176 25.7102 5.22725C25.8157 5.33274 25.875 5.47582 25.875 5.625H27C27 5.17745 26.8222 4.74822 26.5057 4.43176C26.1893 4.11529 25.7601 3.9375 25.3125 3.9375H24.75C24.3024 3.9375 23.8732 4.11529 23.5568 4.43176C23.2403 4.74822 23.0625 5.17745 23.0625 5.625V7.875C23.0625 8.32255 23.2403 8.75178 23.5568 9.06824C23.8732 9.38471 24.3024 9.5625 24.75 9.5625V9.5625Z" fill="black"/>
<path d="M28.6875 9.5625H31.5V8.4375H29.25V7.3125H31.5V6.1875H29.25V5.0625H31.5V3.9375H28.6875C28.5383 3.9375 28.3952 3.99676 28.2898 4.10225C28.1843 4.20774 28.125 4.35082 28.125 4.5V9C28.125 9.14918 28.1843 9.29226 28.2898 9.39775C28.3952 9.50324 28.5383 9.5625 28.6875 9.5625Z" fill="black"/>
<path d="M32.625 15.1875H3.375C3.22582 15.1875 3.08274 15.2468 2.97725 15.3523C2.87176 15.4577 2.8125 15.6008 2.8125 15.75V32.625C2.8125 32.7742 2.87176 32.9173 2.97725 33.0227C3.08274 33.1282 3.22582 33.1875 3.375 33.1875H32.625C32.7742 33.1875 32.9173 33.1282 33.0227 33.0227C33.1282 32.9173 33.1875 32.7742 33.1875 32.625V15.75C33.1875 15.6008 33.1282 15.4577 33.0227 15.3523C32.9173 15.2468 32.7742 15.1875 32.625 15.1875ZM32.0625 18.5625H18.5625V16.3125H32.0625V18.5625ZM17.4375 16.3125V18.5625H3.9375V16.3125H17.4375ZM3.9375 19.6875H17.4375V32.0625H3.9375V19.6875ZM18.5625 32.0625V19.6875H32.0625V32.0625H18.5625Z" fill="black"/>
<path d="M25.3125 23.0625C25.6109 23.0625 25.897 23.181 26.108 23.392C26.319 23.603 26.4375 23.8891 26.4375 24.1875H27.5625C27.5609 23.6899 27.3944 23.2069 27.089 22.8141C26.7837 22.4212 26.3568 22.1406 25.875 22.0162V20.8125H24.75V22.0162C24.2261 22.1585 23.7712 22.4854 23.4693 22.9366C23.1675 23.3879 23.0389 23.9331 23.1075 24.4716C23.176 25.0102 23.4369 25.5058 23.8422 25.8671C24.2474 26.2284 24.7696 26.431 25.3125 26.4375C25.535 26.4375 25.7525 26.5035 25.9375 26.6271C26.1225 26.7507 26.2667 26.9264 26.3519 27.132C26.437 27.3375 26.4593 27.5637 26.4159 27.782C26.3725 28.0002 26.2653 28.2007 26.108 28.358C25.9507 28.5153 25.7502 28.6225 25.532 28.6659C25.3137 28.7093 25.0875 28.687 24.882 28.6019C24.6764 28.5167 24.5007 28.3725 24.3771 28.1875C24.2535 28.0025 24.1875 27.785 24.1875 27.5625H23.0625C23.0641 28.0601 23.2306 28.5431 23.536 28.9359C23.8413 29.3288 24.2682 29.6094 24.75 29.7338V30.9375H25.875V29.7338C26.3989 29.5915 26.8538 29.2646 27.1557 28.8134C27.4575 28.3621 27.5861 27.8169 27.5175 27.2784C27.449 26.7398 27.1881 26.2442 26.7828 25.8829C26.3776 25.5216 25.8554 25.319 25.3125 25.3125C25.0141 25.3125 24.728 25.194 24.517 24.983C24.306 24.772 24.1875 24.4859 24.1875 24.1875C24.1875 23.8891 24.306 23.603 24.517 23.392C24.728 23.181 25.0141 23.0625 25.3125 23.0625Z" fill="black"/>
<path d="M5.0625 21.9375H16.3125V23.0625H5.0625V21.9375Z" fill="black"/>
<path d="M5.0625 25.3125H16.3125V26.4375H5.0625V25.3125Z" fill="black"/>
<path d="M5.0625 28.6875H16.3125V29.8125H5.0625V28.6875Z" fill="black"/>
</svg>
