<svg width="89" height="14" viewBox="0 0 89 14" fill="none" xmlns="http://www.w3.org/2000/svg">
<path d="M10.52 13L10.504 6.28L7.208 11.816H6.04L2.76 6.424V13H0.328V1.8H2.472L6.664 8.76L10.792 1.8H12.92L12.952 13H10.52ZM23.8653 8.728C23.8653 8.76 23.8493 8.984 23.8173 9.4H17.3053C17.4226 9.93333 17.6999 10.3547 18.1373 10.664C18.5746 10.9733 19.1186 11.128 19.7693 11.128C20.2173 11.128 20.6119 11.064 20.9533 10.936C21.3053 10.7973 21.6306 10.584 21.9293 10.296L23.2573 11.736C22.4466 12.664 21.2626 13.128 19.7053 13.128C18.7346 13.128 17.8759 12.9413 17.1293 12.568C16.3826 12.184 15.8066 11.656 15.4013 10.984C14.9959 10.312 14.7933 9.54933 14.7933 8.696C14.7933 7.85333 14.9906 7.096 15.3853 6.424C15.7906 5.74133 16.3399 5.21333 17.0333 4.84C17.7373 4.456 18.5213 4.264 19.3853 4.264C20.2279 4.264 20.9906 4.44533 21.6733 4.808C22.3559 5.17067 22.8893 5.69333 23.2733 6.376C23.6679 7.048 23.8653 7.832 23.8653 8.728ZM19.4013 6.152C18.8359 6.152 18.3613 6.312 17.9773 6.632C17.5933 6.952 17.3586 7.38933 17.2733 7.944H21.5133C21.4279 7.4 21.1933 6.968 20.8093 6.648C20.4253 6.31733 19.9559 6.152 19.4013 6.152ZM25.527 1.128H28.023V13H25.527V1.128ZM38.8835 4.392L35.2515 13H32.6755L29.0595 4.392H31.6355L34.0195 10.248L36.4835 4.392H38.8835ZM39.902 4.392H42.398V13H39.902V4.392ZM41.15 3.192C40.6913 3.192 40.318 3.05867 40.03 2.792C39.742 2.52533 39.598 2.19467 39.598 1.8C39.598 1.40533 39.742 1.07467 40.03 0.808C40.318 0.541333 40.6913 0.407999 41.15 0.407999C41.6087 0.407999 41.982 0.535999 42.27 0.792C42.558 1.048 42.702 1.368 42.702 1.752C42.702 2.168 42.558 2.51467 42.27 2.792C41.982 3.05867 41.6087 3.192 41.15 3.192ZM49.9465 4.264C51.0132 4.264 51.8718 4.584 52.5225 5.224C53.1838 5.864 53.5145 6.81333 53.5145 8.072V13H51.0185V8.456C51.0185 7.77333 50.8692 7.26667 50.5705 6.936C50.2718 6.59467 49.8398 6.424 49.2745 6.424C48.6452 6.424 48.1438 6.62133 47.7705 7.016C47.3972 7.4 47.2105 7.976 47.2105 8.744V13H44.7145V4.392H47.0985V5.4C47.4292 5.03733 47.8398 4.76 48.3305 4.568C48.8212 4.36533 49.3598 4.264 49.9465 4.264ZM60.4843 1.8H63.0763V10.888H68.6923V13H60.4843V1.8ZM69.9645 4.392H72.4605V13H69.9645V4.392ZM71.2125 3.192C70.7538 3.192 70.3805 3.05867 70.0925 2.792C69.8045 2.52533 69.6605 2.19467 69.6605 1.8C69.6605 1.40533 69.8045 1.07467 70.0925 0.808C70.3805 0.541333 70.7538 0.407999 71.2125 0.407999C71.6712 0.407999 72.0445 0.535999 72.3325 0.792C72.6205 1.048 72.7645 1.368 72.7645 1.752C72.7645 2.168 72.6205 2.51467 72.3325 2.792C72.0445 3.05867 71.6712 3.192 71.2125 3.192ZM83.449 4.392V13H81.081V11.976C80.7503 12.3493 80.3557 12.6373 79.897 12.84C79.4383 13.032 78.9423 13.128 78.409 13.128C77.2783 13.128 76.3823 12.8027 75.721 12.152C75.0597 11.5013 74.729 10.536 74.729 9.256V4.392H77.225V8.888C77.225 10.2747 77.8063 10.968 78.969 10.968C79.5663 10.968 80.0463 10.776 80.409 10.392C80.7717 9.99733 80.953 9.416 80.953 8.648V4.392H83.449ZM86.7054 13.128C86.268 13.128 85.9 12.9787 85.6014 12.68C85.3027 12.3813 85.1534 12.008 85.1534 11.56C85.1534 11.1013 85.3027 10.7333 85.6014 10.456C85.9 10.168 86.268 10.024 86.7054 10.024C87.1427 10.024 87.5107 10.168 87.8094 10.456C88.108 10.7333 88.2574 11.1013 88.2574 11.56C88.2574 12.008 88.108 12.3813 87.8094 12.68C87.5107 12.9787 87.1427 13.128 86.7054 13.128Z" fill="#4952FC"/>
</svg>
