<svg width="64" height="39" viewBox="0 0 64 39" fill="none" xmlns="http://www.w3.org/2000/svg">
<path d="M15.1318 10.0893H27.1771V11.0421H16.236V18.213H26.5247V19.1658H16.236V27.0387H27.3026V27.9915H15.1318V10.0893ZM28.2562 10.0893H29.536L35.2073 17.9623L41.0041 10.0893L48.8887 0.0888672L35.935 18.7897L42.6101 27.9915H41.2801L35.2073 19.6171L29.1094 27.9915H27.8045L34.5298 18.7897L28.2562 10.0893ZM43.0869 11.0421V10.0893H56.8135V11.0421H50.4898V27.9915H49.3856V11.0421H43.0869Z" fill="black"/>
<path d="M0.0627441 10.0894H1.44293L20.4749 38.4321L12.6099 27.9915L1.21708 11.4433L1.1669 27.9915H0.0627441V10.0894Z" fill="black"/>
<path d="M56.7024 26.7513C56.9307 26.7513 57.0972 26.5774 57.0972 26.3526C57.0972 26.1278 56.9307 25.9538 56.7024 25.9538C56.4768 25.9538 56.3076 26.1278 56.3076 26.3526C56.3076 26.5774 56.4768 26.7513 56.7024 26.7513ZM57.7874 25.7023C57.7874 26.3659 58.2681 26.7995 58.969 26.7995C59.7156 26.7995 60.1668 26.3526 60.1668 25.5765V22.8442H59.5652V25.5738C59.5652 26.0047 59.3477 26.2348 58.9636 26.2348C58.6199 26.2348 58.3862 26.0207 58.3782 25.7023H57.7874ZM60.9536 25.6675C60.9966 26.3579 61.574 26.7995 62.4334 26.7995C63.3518 26.7995 63.9265 26.3365 63.9265 25.5979C63.9265 25.0172 63.5989 24.696 62.804 24.5114L62.377 24.407C61.8721 24.2893 61.668 24.1314 61.668 23.8557C61.668 23.5078 61.9849 23.2804 62.4602 23.2804C62.9114 23.2804 63.2229 23.5025 63.2793 23.8584H63.8647C63.8298 23.2081 63.2551 22.7505 62.4683 22.7505C61.6223 22.7505 61.0583 23.2081 61.0583 23.8959C61.0583 24.4632 61.3779 24.8004 62.0789 24.9636L62.5784 25.0841C63.0913 25.2045 63.3169 25.3811 63.3169 25.6755C63.3169 26.018 62.9624 26.2669 62.479 26.2669C61.9607 26.2669 61.6008 26.0341 61.5498 25.6675H60.9536Z" fill="black"/>
</svg>
