<svg width="65" height="49" viewBox="0 0 65 49" fill="none" xmlns="http://www.w3.org/2000/svg">
<path d="M36.9227 13.2547L34.7051 17.0946L27.1212 3.95873L3.83972 44.2785H19.6028C19.6028 46.3992 21.322 48.1184 23.4428 48.1184H3.83973C2.46797 48.1184 1.20053 47.3862 0.514763 46.1981C-0.171002 45.0101 -0.170933 43.5464 0.514948 42.3585L23.7964 2.03875C24.4823 0.850594 25.75 0.118652 27.122 0.118652C28.4939 0.118652 29.7616 0.850594 30.4475 2.03875L36.9227 13.2547V13.2547Z" fill="#00C58E"/>
<path d="M53.7292 42.3587L39.1405 17.0949L36.9229 13.2549L34.7053 17.0949L20.1182 42.3587C19.4323 43.5467 19.4323 45.0103 20.118 46.1983C20.8038 47.3864 22.0712 48.1187 23.443 48.1187H50.3996C51.7716 48.1187 53.0396 47.3872 53.7258 46.199C54.4119 45.0109 54.412 43.5469 53.726 42.3587H53.7292ZM23.443 44.2787L36.9229 20.9348L50.3996 44.2787H23.443L23.443 44.2787Z" fill="#2F495E"/>
<path d="M64.1592 46.198C63.4734 47.3859 62.2061 48.118 60.8345 48.118H50.3993C52.5201 48.118 54.2393 46.3988 54.2393 44.2781H60.8265L42.1354 11.9055L39.1402 17.0943L36.9226 13.2543L38.8106 9.98552C39.4965 8.79737 40.7642 8.06543 42.1362 8.06543C43.5081 8.06543 44.7758 8.79737 45.4617 9.98552L64.1592 42.3581C64.8452 43.5462 64.8452 45.01 64.1592 46.198V46.198Z" fill="#108775"/>
</svg>
